{
  "accessors": [
    {
      "bufferView": 1,
      "componentType": 5126,
      "count": 65532,
      "max": [
        5.707211017608643,
        7.885993003845215,
        7.226725101470947
      ],
      "min": [
        -4.3770904541015625,
        -7.41652774810791,
        0.10157749801874161
      ],
      "type": "VEC3"
    },
    {
      "bufferView": 1,
      "byteOffset": 786384,
      "componentType": 5126,
      "count": 65532,
      "max": [
        0.9999995827674866,
        0.9999865889549255,
        0.9999999403953552
      ],
      "min": [
        -0.9999997615814209,
        -0.9999951124191284,
        -0.9999741911888123
      ],
      "type": "VEC3"
    },
    {
      "bufferView": 2,
      "componentType": 5126,
      "count": 65532,
      "max": [
        0.7176470756530762,
        0.4901960790157318,
        0.46666666865348816,
        1.0
      ],
      "min": [
        0.0,
        0.0,
        0.0,
        0.0
      ],
      "type": "VEC4"
    },
    {
      "bufferView": 0,
      "componentType": 5125,
      "count": 138840,
      "type": "SCALAR"
    },
    {
      "bufferView": 1,
      "byteOffset": 1572768,
      "componentType": 5126,
      "count": 65534,
      "max": [
        5.709539890289307,
        8.04072093963623,
        7.330669403076172
      ],
      "min": [
        -4.3892621994018555,
        -7.530133247375488,
        0.16369958221912384
      ],
      "type": "VEC3"
    },
    {
      "bufferView": 1,
      "byteOffset": 2359176,
      "componentType": 5126,
      "count": 65534,
      "max": [
        0.9999915957450867,
        0.9999836087226868,
        1.0
      ],
      "min": [
        -0.9999972581863403,
        -0.9999982714653015,
        -0.9999939799308777
      ],
      "type": "VEC3"
    },
    {
      "bufferView": 2,
      "byteOffset": 1048512,
      "componentType": 5126,
      "count": 65534,
      "max": [
        0.7176470756530762,
        0.45490196347236633,
        0.43921568989753723,
        1.0
      ],
      "min": [
        0.0,
        0.0,
        0.0,
        0.0
      ],
      "type": "VEC4"
    },
    {
      "bufferView": 0,
      "byteOffset": 555360,
      "componentType": 5125,
      "count": 179514,
      "type": "SCALAR"
    },
    {
      "bufferView": 1,
      "byteOffset": 3145584,
      "componentType": 5126,
      "count": 29381,
      "max": [
        5.707211017608643,
        8.032210350036621,
        7.2527899742126465
      ],
      "min": [
        -4.308606147766113,
        -7.4545698165893555,
        0.17996352910995483
      ],
      "type": "VEC3"
    },
    {
      "bufferView": 1,
      "byteOffset": 3498156,
      "componentType": 5126,
      "count": 29381,
      "max": [
        0.9999193549156189,
        0.9999880194664001,
        0.9999937415122986
      ],
      "min": [
        -0.9997429251670837,
        -0.999940812587738,
        -0.9999936819076538
      ],
      "type": "VEC3"
    },
    {
      "bufferView": 2,
      "byteOffset": 2097056,
      "componentType": 5126,
      "count": 29381,
      "max": [
        0.7098039388656616,
        0.43529412150382996,
        0.41960784792900085,
        1.0
      ],
      "min": [
        0.0,
        0.0,
        0.0,
        0.0
      ],
      "type": "VEC4"
    },
    {
      "bufferView": 0,
      "byteOffset": 1273416,
      "componentType": 5125,
      "count": 68484,
      "type": "SCALAR"
    },
    {
      "bufferView": 1,
      "byteOffset": 3850728,
      "componentType": 5126,
      "count": 2719,
      "max": [
        14.045605659484863,
        13.35006332397461,
        2.6204841136932373
      ],
      "min": [
        -14.730664253234863,
        -15.60232925415039,
        -0.46033066511154175
      ],
      "type": "VEC3"
    },
    {
      "bufferView": 1,
      "byteOffset": 3883356,
      "componentType": 5126,
      "count": 2719,
      "max": [
        0.4901864528656006,
        0.5887824892997742,
        0.9999974370002747
      ],
      "min": [
        -0.4245642423629761,
        -0.6153467893600464,
        0.7418745756149292
      ],
      "type": "VEC3"
    },
    {
      "bufferView": 2,
      "byteOffset": 2567152,
      "componentType": 5126,
      "count": 2719,
      "max": [
        0.3019607961177826,
        0.29019609093666077,
        0.21568627655506134,
        1.0
      ],
      "min": [
        0.007843137718737125,
        0.0117647061124444,
        0.003921568859368563,
        1.0
      ],
      "type": "VEC4"
    },
    {
      "bufferView": 0,
      "byteOffset": 1547352,
      "componentType": 5125,
      "count": 15132,
      "type": "SCALAR"
    },
    {
      "bufferView": 1,
      "byteOffset": 3915984,
      "componentType": 5126,
      "count": 65533,
      "max": [
        9.529866218566895,
        9.515741348266602,
        3.8622608184814453
      ],
      "min": [
        -10.4301176071167,
        -12.7133150100708,
        -0.14489337801933289
      ],
      "type": "VEC3"
    },
    {
      "bufferView": 1,
      "byteOffset": 4702380,
      "componentType": 5126,
      "count": 65533,
      "max": [
        0.9998719096183777,
        0.9999571442604065,
        0.9993070363998413
      ],
      "min": [
        -0.9999367594718933,
        -0.9999675750732422,
        -0.999153733253479
      ],
      "type": "VEC3"
    },
    {
      "bufferView": 2,
      "byteOffset": 2610656,
      "componentType": 5126,
      "count": 65533,
      "max": [
        0.5686274766921997,
        0.5254902243614197,
        0.40392157435417175,
        1.0
      ],
      "min": [
        0.0,
        0.0,
        0.0,
        1.0
      ],
      "type": "VEC4"
    },
    {
      "bufferView": 0,
      "byteOffset": 1607880,
      "componentType": 5125,
      "count": 66093,
      "type": "SCALAR"
    },
    {
      "bufferView": 1,
      "byteOffset": 5488776,
      "componentType": 5126,
      "count": 26707,
      "max": [
        9.515316009521484,
        9.50782585144043,
        3.8622608184814453
      ],
      "min": [
        -10.080124855041504,
        -11.825017929077148,
        -0.07213717699050903
      ],
      "type": "VEC3"
    },
    {
      "bufferView": 1,
      "byteOffset": 5809260,
      "componentType": 5126,
      "count": 26707,
      "max": [
        0.9999879598617554,
        0.999980628490448,
        0.7815137505531311
      ],
      "min": [
        -0.9999456405639648,
        -0.9998915791511536,
        -0.7431391477584839
      ],
      "type": "VEC3"
    },
    {
      "bufferView": 2,
      "byteOffset": 3659184,
      "componentType": 5126,
      "count": 26707,
      "max": [
        0.5686274766921997,
        0.5254902243614197,
        0.40392157435417175,
        1.0
      ],
      "min": [
        0.0,
        0.0,
        0.0,
        1.0
      ],
      "type": "VEC4"
    },
    {
      "bufferView": 0,
      "byteOffset": 1872252,
      "componentType": 5125,
      "count": 27765,
      "type": "SCALAR"
    }
  ],
  "asset": {
    "extras": {
      "author": "Michel Donze (https://sketchfab.com/mdonze)",
      "license": "CC-BY-4.0 (http://creativecommons.org/licenses/by/4.0/)",
      "source": "https://sketchfab.com/3d-models/barn-e0d2167579884c1a860e2899893739fb",
      "title": "Barn"
    },
    "generator": "Sketchfab-14.56.0",
    "version": "2.0"
  },
  "bufferViews": [
    {
      "buffer": 0,
      "byteLength": 1983312,
      "name": "floatBufferViews",
      "target": 34963
    },
    {
      "buffer": 0,
      "byteLength": 6129744,
      "byteOffset": 1983312,
      "byteStride": 12,
      "name": "floatBufferViews",
      "target": 34962
    },
    {
      "buffer": 0,
      "byteLength": 4086496,
      "byteOffset": 8113056,
      "byteStride": 16,
      "name": "floatBufferViews",
      "target": 34962
    }
  ],
  "buffers": [
    {
      "byteLength": 12199552,
      "uri": "scene.bin"
    }
  ],
  "extensionsUsed": [
    "KHR_materials_specular"
  ],
  "materials": [
    {
      "doubleSided": true,
      "extensions": {
        "KHR_materials_specular": {
          "specularColorFactor": [
            1.0,
            1.0,
            1.0
          ],
          "specularFactor": 0.6872401896843876
        }
      },
      "name": "Material",
      "pbrMetallicRoughness": {
        "baseColorFactor": [
          0.8,
          0.8,
          0.8,
          1.0
        ],
        "metallicFactor": 0.0,
        "roughnessFactor": 0.9283807341127135
      }
    }
  ],
  "meshes": [
    {
      "name": "Barn_Material_0",
      "primitives": [
        {
          "attributes": {
            "COLOR_0": 2,
            "NORMAL": 1,
            "POSITION": 0
          },
          "indices": 3,
          "material": 0,
          "mode": 4
        }
      ]
    },
    {
      "name": "Barn_Material_0",
      "primitives": [
        {
          "attributes": {
            "COLOR_0": 6,
            "NORMAL": 5,
            "POSITION": 4
          },
          "indices": 7,
          "material": 0,
          "mode": 4
        }
      ]
    },
    {
      "name": "Barn_Material_0",
      "primitives": [
        {
          "attributes": {
            "COLOR_0": 10,
            "NORMAL": 9,
            "POSITION": 8
          },
          "indices": 11,
          "material": 0,
          "mode": 4
        }
      ]
    },
    {
      "name": "Ground_Material_0",
      "primitives": [
        {
          "attributes": {
            "COLOR_0": 14,
            "NORMAL": 13,
            "POSITION": 12
          },
          "indices": 15,
          "material": 0,
          "mode": 4
        }
      ]
    },
    {
      "name": "Grass_Material_0",
      "primitives": [
        {
          "attributes": {
            "COLOR_0": 18,
            "NORMAL": 17,
            "POSITION": 16
          },
          "indices": 19,
          "material": 0,
          "mode": 4
        }
      ]
    },
    {
      "name": "Grass_Material_0",
      "primitives": [
        {
          "attributes": {
            "COLOR_0": 22,
            "NORMAL": 21,
            "POSITION": 20
          },
          "indices": 23,
          "material": 0,
          "mode": 4
        }
      ]
    }
  ],
  "nodes": [
    {
      "children": [
        1
      ],
      "matrix": [
        1.0,
        0.0,
        0.0,
        0.0,
        0.0,
        2.220446049250313e-16,
        -1.0,
        0.0,
        0.0,
        1.0,
        2.220446049250313e-16,
        0.0,
        0.0,
        0.0,
        0.0,
        1.0
      ],
      "name": "Sketchfab_model"
    },
    {
      "children": [
        2
      ],
      "matrix": [
        0.009999999776482582,
        0.0,
        0.0,
        0.0,
        0.0,
        0.0,
        0.009999999776482582,
        0.0,
        0.0,
        -0.009999999776482582,
        0.0,
        0.0,
        0.0,
        0.0,
        0.0,
        1.0
      ],
      "name": "ec0add74670b4854b366c10c8105976e.fbx"
    },
    {
      "children": [
        3,
        7,
        9
      ],
      "name": "RootNode"
    },
    {
      "children": [
        4,
        5,
        6
      ],
      "matrix": [
        100.0,
        0.0,
        0.0,
        0.0,
        0.0,
        -1.629206793918314e-05,
        -99.99999999999868,
        0.0,
        0.0,
        99.99999999999868,
        -1.629206793918314e-05,
        0.0,
        0.0,
        0.0,
        0.0,
        1.0
      ],
      "name": "Barn"
    },
    {
      "mesh": 0,
      "name": "Barn_Material_0"
    },
    {
      "mesh": 1,
      "name": "Barn_Material_0"
    },
    {
      "mesh": 2,
      "name": "Barn_Material_0"
    },
    {
      "children": [
        8
      ],
      "matrix": [
        100.0,
        0.0,
        0.0,
        0.0,
        0.0,
        -1.629206793918314e-05,
        -99.99999999999868,
        0.0,
        0.0,
        99.99999999999868,
        -1.629206793918314e-05,
        0.0,
        0.0,
        0.0,
        0.0,
        1.0
      ],
      "name": "Ground"
    },
    {
      "mesh": 3,
      "name": "Ground_Material_0"
    },
    {
      "children": [
        10,
        11
      ],
      "matrix": [
        100.0,
        0.0,
        0.0,
        0.0,
        0.0,
        -1.629206793918314e-05,
        -99.99999999999868,
        0.0,
        0.0,
        99.99999999999868,
        -1.629206793918314e-05,
        0.0,
        0.0,
        0.0,
        0.0,
        1.0
      ],
      "name": "Grass"
    },
    {
      "mesh": 4,
      "name": "Grass_Material_0"
    },
    {
      "mesh": 5,
      "name": "Grass_Material_0"
    }
  ],
  "scene": 0,
  "scenes": [
    {
      "name": "Sketchfab_Scene",
      "nodes": [
        0
      ]
    }
  ]
}
