{
  "accessors": [
    {
      "bufferView": 2,
      "componentType": 5126,
      "count": 58639,
      "max": [
        6.689956188201904,
        5.035700798034668,
        4.258069038391113
      ],
      "min": [
        -7.266598224639893,
        -6.486553192138672,
        -8.085708618164063
      ],
      "type": "VEC3"
    },
    {
      "bufferView": 2,
      "byteOffset": 703668,
      "componentType": 5126,
      "count": 58639,
      "max": [
        0.9999677538871765,
        0.9999844431877136,
        0.9999191164970398
      ],
      "min": [
        -0.9999169111251831,
        -0.9999844431877136,
        -0.9998253583908081
      ],
      "type": "VEC3"
    },
    {
      "bufferView": 1,
      "componentType": 5126,
      "count": 58639,
      "max": [
        0.9989699721336365,
        0.9999970197677612
      ],
      "min": [
        3.000000106112566e-06,
        1.5999999959603883e-05
      ],
      "type": "VEC2"
    },
    {
      "bufferView": 0,
      "componentType": 5125,
      "count": 149997,
      "type": "SCALAR"
    }
  ],
  "asset": {
    "extras": {
      "author": "BeckyKaganSchott (https://sketchfab.com/BeckyKaganSchott)",
      "license": "CC-BY-4.0 (http://creativecommons.org/licenses/by/4.0/)",
      "source": "https://sketchfab.com/3d-models/april-flowers-5612acc3504b4645ad64bd2f7fe97ebb",
      "title": "April Flowers"
    },
    "generator": "Sketchfab-12.65.0",
    "version": "2.0"
  },
  "bufferViews": [
    {
      "buffer": 0,
      "byteLength": 599988,
      "name": "floatBufferViews",
      "target": 34963
    },
    {
      "buffer": 0,
      "byteLength": 469112,
      "byteOffset": 599988,
      "byteStride": 8,
      "name": "floatBufferViews",
      "target": 34962
    },
    {
      "buffer": 0,
      "byteLength": 1407336,
      "byteOffset": 1069100,
      "byteStride": 12,
      "name": "floatBufferViews",
      "target": 34962
    }
  ],
  "buffers": [
    {
      "byteLength": 2476436,
      "uri": "scene.bin"
    }
  ],
  "images": [
    {
      "uri": "textures/model_baseColor.jpeg"
    }
  ],
  "materials": [
    {
      "doubleSided": true,
      "name": "model",
      "pbrMetallicRoughness": {
        "baseColorTexture": {
          "index": 0
        },
        "metallicFactor": 0.0
      }
    }
  ],
  "meshes": [
    {
      "name": "Object_0",
      "primitives": [
        {
          "attributes": {
            "NORMAL": 1,
            "POSITION": 0,
            "TEXCOORD_0": 2
          },
          "indices": 3,
          "material": 0,
          "mode": 4
        }
      ]
    }
  ],
  "nodes": [
    {
      "children": [
        1
      ],
      "matrix": [
        0.8340480923652649,
        0.14785273373126973,
        0.5315104126930237,
        0.0,
        0.13724906742572784,
        0.8775217533111573,
        -0.45947608351707436,
        0.0,
        -0.5343467593193054,
        0.456174463033676,
        0.7116026878356935,
        0.0,
        -1.3597182035446167,
        1.0975596904754632,
        2.889311790466309,
        1.0
      ],
      "name": "Sketchfab_model"
    },
    {
      "children": [
        2
      ],
      "name": "model.obj.cleaner.materialmerger.gles"
    },
    {
      "mesh": 0,
      "name": "Object_2"
    }
  ],
  "samplers": [
    {
      "magFilter": 9729,
      "minFilter": 9987,
      "wrapS": 10497,
      "wrapT": 10497
    }
  ],
  "scene": 0,
  "scenes": [
    {
      "name": "Sketchfab_Scene",
      "nodes": [
        0
      ]
    }
  ],
  "textures": [
    {
      "sampler": 0,
      "source": 0
    }
  ]
}
